<svg xmlns="http://www.w3.org/2000/svg" width="960" height="540" viewBox="0 0 960 540" role="img" aria-labelledby="title desc">
  <title id="title">Nima Editor capabilities sample</title>
  <desc id="desc">Stylized card showing write, review, sync, and export capabilities.</desc>
  <defs>
    <linearGradient id="bg" x1="0%" y1="0%" x2="100%" y2="100%">
      <stop offset="0%" stop-color="#0f2233"/>
      <stop offset="100%" stop-color="#1f4b5f"/>
    </linearGradient>
    <linearGradient id="panel" x1="0%" y1="0%" x2="100%" y2="0%">
      <stop offset="0%" stop-color="#f4f1e8"/>
      <stop offset="100%" stop-color="#d9efe8"/>
    </linearGradient>
  </defs>
  <rect width="960" height="540" fill="url(#bg)"/>
  <rect x="70" y="70" width="820" height="400" rx="28" fill="url(#panel)"/>
  <rect x="110" y="120" width="280" height="300" rx="18" fill="#173042"/>
  <rect x="420" y="120" width="190" height="300" rx="18" fill="#24506a"/>
  <rect x="640" y="120" width="210" height="300" rx="18" fill="#2f6c67"/>
  <text x="110" y="52" font-family="Segoe UI, Arial, sans-serif" font-size="30" fill="#f4f1e8">Nima Editor Sample Asset</text>
  <text x="145" y="168" font-family="Segoe UI, Arial, sans-serif" font-size="28" fill="#f7fbff">Write</text>
  <text x="145" y="214" font-family="Segoe UI, Arial, sans-serif" font-size="18" fill="#b8d7eb">Markdown</text>
  <text x="145" y="244" font-family="Segoe UI, Arial, sans-serif" font-size="18" fill="#b8d7eb">Tables</text>
  <text x="145" y="274" font-family="Segoe UI, Arial, sans-serif" font-size="18" fill="#b8d7eb">Diagrams</text>
  <text x="455" y="168" font-family="Segoe UI, Arial, sans-serif" font-size="28" fill="#f7fbff">Review</text>
  <text x="455" y="214" font-family="Segoe UI, Arial, sans-serif" font-size="18" fill="#d6eef5">Preview</text>
  <text x="455" y="244" font-family="Segoe UI, Arial, sans-serif" font-size="18" fill="#d6eef5">History</text>
  <text x="455" y="274" font-family="Segoe UI, Arial, sans-serif" font-size="18" fill="#d6eef5">Diff</text>
  <text x="675" y="168" font-family="Segoe UI, Arial, sans-serif" font-size="28" fill="#f7fbff">Deliver</text>
  <text x="675" y="214" font-family="Segoe UI, Arial, sans-serif" font-size="18" fill="#e4fbf3">Sync</text>
  <text x="675" y="244" font-family="Segoe UI, Arial, sans-serif" font-size="18" fill="#e4fbf3">Export</text>
  <text x="675" y="274" font-family="Segoe UI, Arial, sans-serif" font-size="18" fill="#e4fbf3">Share</text>
  <path d="M390 270 L420 270" stroke="#f2994a" stroke-width="8" stroke-linecap="round"/>
  <path d="M610 270 L640 270" stroke="#f2994a" stroke-width="8" stroke-linecap="round"/>
  <circle cx="405" cy="270" r="9" fill="#f2994a"/>
  <circle cx="625" cy="270" r="9" fill="#f2994a"/>
  <text x="110" y="455" font-family="Segoe UI, Arial, sans-serif" font-size="20" fill="#173042">Use this image to test project assets, relative paths, resizing, duplication, and export.</text>
</svg>
